<?xml version="1.0" encoding="UTF-8"?>
<svg id="katman_1" xmlns="http://www.w3.org/2000/svg" version="1.1" viewBox="0 0 270.573 247.05972">
  <!-- Generator: Adobe Illustrator 29.1.0, SVG Export Plug-In . SVG Version: 2.1.0 Build 142)  -->
  <path d="M270.44751,45.37973c-6.62.12-13.25.03998-19.85999-.01001-.27002-11.75.39001-23.53998-.37-35.27002.56,63.95001.29999,127.91003.25995,191.87-34.42578.09003-68.85162.10754-103.27863.09875,34.4245.00873,68.85034-.00879,103.27863-.09875.02002-63.96002.28003-127.91998-.26996-191.87-1.70001-4.39001-5.28998-8.04999-9.73999-9.62-3.46002-.72998-7.03003-.39001-10.53003-.46002-62.04999.01001-124.09998.02002-186.15002-.00995C29.13751,8.57974,14.73749,17.58969.11749,26.19974-.04248,93.52969-.03247,160.86972.10748,228.19968c8.1366-4.29816,15.82361-9.38562,23.77002-14.01404-.02002,5.21808.02997,10.44604-.02002,15.67407.02002,3.23999.01001,6.71002,1.73999,9.58002,2.73999,4.87,8.29004,7.75,13.82001,7.58997,77.01001.01001,154.04004-.04999,231.07001.03003.08002-67.23004.16003-134.46002-.03998-201.67999ZM133.3175,157.11972c-5.57001-20.70001-10.91998-41.44-16.40997-62.14001-1.17004-3.77997-2.07001-7.64001-2.36005-11.59998-.47998,3.12-1.12,6.22998-1.09998,9.39996-.05005,21.44.14001,42.89001-.07001,64.34003-8.04004.02997-16.06.04999-24.09003-.03003-.02997-37.28998.01001-74.58997-.00995-111.88,11.78998-.20001,23.59998-.01001,35.40997-.09998,7.66998,29.56,14.76001,59.27996,22.47003,88.82,8.44995-29.45001,15.62-59.26001,23.75995-88.81,11.41003.06,22.82001-.12,34.24005.13,0,36.06995-.01001,72.12993,0,108.20996-.08002,1.25-.22003,2.51001-.42999,3.75-8.81-.15997-17.62.03003-26.41003-.12-.02002-17.23999-.04999-34.5-.01001-51.75-.03998-6.28998.13-12.58997-.39996-18.85999-5.70001,23.69-12.23004,47.17999-18.47003,70.72003-8.70001-.10999-17.40997-.01001-26.12-.08002l.00002.00002Z"/>
</svg>