<?xml version="1.0" encoding="UTF-8"?>
<svg id="Layer_1" xmlns="http://www.w3.org/2000/svg" version="1.1" viewBox="0 0 240 234">
  <!-- Generator: Adobe Illustrator 29.1.0, SVG Export Plug-In . SVG Version: 2.1.0 Build 142)  -->
  <path d="M98.5,81.20001c-3.70001-1.5-7.70001-2.10004-11.79999-2-2.60004,0-4.90002,0-6.80005.09998-1.99994-.09998-3.39996,0-4.09998.10004v33.59998c1.40002.09998,2.70001.20001,3.90002.20001h5.29999c3.90002,0,7.79999-.60004,11.5-1.80005,3.20001-.89996,6-2.79999,8.20001-5.29999,2.09998-2.5,3.09998-5.89996,3.09998-10.29999.10004-3.09998-.70001-6.20001-2.29999-8.90002-1.70001-2.59998-4.09998-4.59998-7-5.69995Z"/>
  <path d="M197.5,0H42.5C19,0,0,19,0,42.5v149c0,23.5,19,42.5,42.5,42.5h155c23.5,0,42.5-19,42.5-42.5V42.5c0-23.5-19-42.5-42.5-42.5ZM123.59998,116.5c-4,5.59998-9.59998,9.79999-16.09998,12.20001-6.79999,2.5-14.29999,3.39996-22.5,3.39996-2.40002,0-4,0-5-.09998-1-.10004-2.40002-.10004-4.29999-.10004v32.09998c.09998.70001-.40002,1.30005-1.10004,1.40002h-19.39996c-.79999,0-1.20001-.39996-1.20001-1.29999V61.20001c0-.70001.29999-1.10004,1-1.10004,1.70001,0,3.29999,0,5.59998-.09998,2.40002-.09998,4.90002-.09998,7.60004-.20001,2.70001-.09998,5.59998-.09998,8.70001-.20001,3.09998-.09998,6.09998-.09998,9.09998-.09998,8.20001,0,15,1,20.59998,3.09998,5,1.70001,9.60004,4.5,13.40002,8.20001,3.20001,3.20001,5.70001,7.10004,7.29999,11.40002,1.5,4.20001,2.29999,8.5,2.29999,13,0,8.59998-2,15.70001-6,21.29999ZM194.5,155.39996c-2.79999,4-6.70001,7.10004-11.20001,8.90002-4.89996,2.09998-10.89996,3.20001-18.09998,3.20001-4.60004,0-9.10004-.40002-13.60004-1.30005-3.5-.59998-7-1.69995-10.20001-3.19995-.69995-.40002-1.19995-1.10004-1.09998-1.90002v-17.39996c0-.30005.09998-.70001.39996-.90002.30005-.20001.60004-.09998.90002.10004,3.89996,2.29999,8,3.89996,12.39996,4.89996,3.80005,1,7.80005,1.5,11.80005,1.5,3.79999,0,6.5-.5,8.29999-1.39996,1.59998-.70001,2.70001-2.40002,2.70001-4.20001,0-1.40002-.80005-2.70001-2.40002-4s-4.89996-2.79999-9.79999-4.70001c-5.10004-1.79999-9.79999-4.20001-14.20001-7.20001-3.09998-2.19995-5.70001-5.09998-7.59998-8.5-1.60004-3.19995-2.40002-6.69995-2.30005-10.19995,0-4.30005,1.20001-8.40002,3.40002-12.10004,2.5-4,6.20001-7.19995,10.5-9.19995,4.70001-2.40002,10.59998-3.5,17.70001-3.5,4.09998,0,8.29999.29999,12.39996.89996,3,.40002,5.90002,1.20001,8.60004,2.29999.39996.10004.79999.5,1,.90002.09998.40002.19995.79999.19995,1.20001v16.29999c0,.40002-.19995.79999-.5,1-.8999.19995-1.3999.19995-1.79993,0-3-1.60004-6.20001-2.70001-9.59998-3.40002-3.70001-.79999-7.40002-1.29999-11.20001-1.29999-2-.10004-4.10004.19995-6,.69995-1.29999.30005-2.40002,1-3.10004,2-.5.80005-.79999,1.80005-.79999,2.70001,0,.90002.40002,1.79999,1,2.60004.90002,1.09998,2.10004,2,3.40002,2.69995,2.29999,1.20001,4.69995,2.30005,7.09998,3.30005,5.40002,1.79999,10.60004,4.29999,15.40002,7.29999,3.29999,2.09998,6,4.89996,7.89996,8.29999,1.60004,3.20001,2.40002,6.70001,2.29999,10.29999.10004,4.70001-1.29999,9.40002-3.89996,13.29999Z"/>
</svg>