<?xml version="1.0" encoding="UTF-8"?>
<svg id="Layer_1" xmlns="http://www.w3.org/2000/svg" version="1.1" viewBox="0 0 512.46997 499.66">
  <!-- Generator: Adobe Illustrator 29.1.0, SVG Export Plug-In . SVG Version: 2.1.0 Build 142)  -->
  <path d="M206.70001,173.17996c-7.9903-3.10077-16.52344-4.55975-25.09003-4.28998-5.5,0-10.37.0567-14.60999.16998-4.19214.11206-7.09204.27979-8.71002.50256v71.16748c2.97333.23334,5.72333.34668,8.25.33997h11.34003c8.32123.11987,16.61139-1.04034,24.58002-3.44,6.81177-2.02277,12.8996-5.95868,17.53998-11.33997,4.46667-5.26666,6.70001-12.60004,6.70001-22,.17297-6.64832-1.56213-13.20697-5-18.90002-3.62775-5.51361-8.86493-9.77667-15-12.21002Z"/>
  <path d="M421.75-.00003H90.75C40.63019-.00003,0,40.63016,0,90.74997v318.16003c0,50.11981,40.63019,90.75,90.75,90.75h331c50.11987,0,90.75-40.63019,90.75-90.75V90.74997C512.5,40.63016,471.86987-.00003,421.75-.00003ZM260.74005,248.62997c-8.53601,11.97418-20.53381,21.04761-34.38,26-15.43073,5.55115-31.73248,8.2879-48.13,8.08002-5.04669,0-8.60004-.06-10.66003-.17999-2.06-.10999-5.15997-.17004-9.27997-.17004v67.73004c.20813,1.4928-.82843,2.87341-2.32001,3.08997-.25513.03992-.51489.03992-.77002,0h-41.95001c-1.59998-.03998-2.40002-.94995-2.40002-2.78998v-219.67999c0-1.59998.68005-2.39996,2.06-2.39996,3.66003,0,8.01337-.0567,13.06-.17004,5.04669-.11328,10.49005-.22998,16.33002-.34998l18.57001-.33997c6.53333-.12006,13.00665-.18005,19.41998-.18005,17.42004,0,32.08667,2.17999,44,6.54004,10.75671,3.63098,20.5658,9.6203,28.71002,17.52997,6.90466,6.85413,12.2406,15.12421,15.64001,24.23999,3.21875,8.86884,4.85034,18.23523,4.82001,27.66998,0,18.34003-4.23999,33.46667-12.71997,45.38ZM401.07001,222.18997h-32.72998v73.57001c0,7.79999,1.33331,13.35999,4,16.67999s7.53668,4.98663,14.60999,5c2.06,0,4-.04999,5.84998-.17004,1.85004-.12,3.66003-.28998,5.5-.51996.62354-.23047,1.31763-.16803,1.89001.16998.62445.54504.9295,1.36981.81,2.19v28.19c0,2.52002-.91663,4.01001-2.75,4.47003-4.51331,1.4104-9.10425,2.55896-13.75,3.44-5.44525.96979-10.9693,1.42847-16.5,1.37-14.89996,0-26.58667-3.89667-35.06-11.69s-12.71332-20.28333-12.71997-37.47003v-85.25995h-20.29999c-1.83002,0-2.75-1-2.75-3.09003v-34.07001c0-1.82996,1-2.75,3.09998-2.75h20.28003c.22668-3.89331.51331-8.41998.85999-13.57996.34998-5.15002.79999-10.31,1.38-15.47003.58002-5.15997,1.07996-9.33997,1.53998-12.53998.2193-.68408.5578-1.32391,1-1.89001.4458-.55951,1.04272-.97949,1.72003-1.21002l40.94995-5.12c.62207-.18451,1.28833-.15277,1.89001.09003.46002.22998.52002.83002.52002,2-.46002,5.27332-.79333,12.43665-1,21.48999s-.43665,17.81665-.69,26.28998h32c1.38,0,2.07001.92004,2.07001,2.75v34.73004c.16956,1.13336-.59222,2.19635-1.72003,2.39996Z"/>
</svg>